<?xml version="1.0" encoding="UTF-8" standalone="no"?>
<!-- Created with Inkscape (http://www.inkscape.org/) -->

<svg
   xmlns:dc="http://purl.org/dc/elements/1.1/"
   xmlns:cc="http://creativecommons.org/ns#"
   xmlns:rdf="http://www.w3.org/1999/02/22-rdf-syntax-ns#"
   xmlns:svg="http://www.w3.org/2000/svg"
   xmlns="http://www.w3.org/2000/svg"
   xmlns:sodipodi="http://sodipodi.sourceforge.net/DTD/sodipodi-0.dtd"
   xmlns:inkscape="http://www.inkscape.org/namespaces/inkscape"
   width="166.6657mm"
   height="32.639069mm"
   viewBox="0 0 590.54774 115.65024"
   id="svg4576"
   version="1.1"
   inkscape:version="0.91 r13725"
   sodipodi:docname="rft-logo.svg">
  <defs
     id="defs4578" />
  <sodipodi:namedview
     id="base"
     pagecolor="#ffffff"
     bordercolor="#666666"
     borderopacity="1.0"
     inkscape:pageopacity="0.0"
     inkscape:pageshadow="2"
     inkscape:zoom="0.98994949"
     inkscape:cx="235.26994"
     inkscape:cy="-7.7149654"
     inkscape:document-units="px"
     inkscape:current-layer="layer1"
     showgrid="false"
     fit-margin-top="0"
     fit-margin-left="0"
     fit-margin-right="0"
     fit-margin-bottom="0"
     inkscape:window-width="1391"
     inkscape:window-height="856"
     inkscape:window-x="49"
     inkscape:window-y="0"
     inkscape:window-maximized="1" />
  <metadata
     id="metadata4581">
    <rdf:RDF>
      <cc:Work
         rdf:about="">
        <dc:format>image/svg+xml</dc:format>
        <dc:type
           rdf:resource="http://purl.org/dc/dcmitype/StillImage" />
        <dc:title></dc:title>
      </cc:Work>
    </rdf:RDF>
  </metadata>
  <g
     inkscape:label="Layer 1"
     inkscape:groupmode="layer"
     id="layer1"
     transform="translate(-69.513333,-72.394222)"
     style="display:inline">
    <path
       d="m 135.96596,97.792972 c -5.895,52.611248 12.05375,51.848748 74.57999,8.621248 l 5.655,-33.889998 -128.179992,-0.13 -5.00375,29.989998 C 110.85596,80.696722 138.67596,73.615472 135.96596,97.792972"
       style="fill:#80e428;fill-opacity:1;fill-rule:nonzero;stroke:none"
       id="path7986"
       inkscape:connector-curvature="0" />
    <path
       d="m 197.69333,188.04447 12.07625,-72.39875 c -54.4,42.51125 -80.32,42.80875 -85.48625,6.54125 -3.715,-26.092498 -30.313747,-4.9325 -48.764997,29.73125 l -6.005,35.99625 128.179997,0.13 z"
       style="fill:#56a1c8;fill-opacity:0.94117647;fill-rule:nonzero;stroke:none"
       id="path7988"
       inkscape:connector-curvature="0" />
    <g
       transform="translate(5,7.1428572)"
       style="font-style:normal;font-weight:normal;font-size:90px;line-height:125%;font-family:sans-serif;letter-spacing:0px;word-spacing:0px;fill:#56a1c8;fill-opacity:0.94117647;stroke:none;stroke-width:1px;stroke-linecap:butt;stroke-linejoin:miter;stroke-opacity:1"
       id="flowRoot5132">
      <path
         d="m 260.24516,110.21182 q 0,-1.8 -0.9,-3.42 -0.81,-1.62 -2.25,-2.79 -1.44,-1.26 -3.42,-1.98 -1.89,-0.72 -3.96,-0.72 l -6.84,0 0,18.09 9.63,0 q 1.53,0 2.88,-0.72 1.44,-0.72 2.52,-1.98 1.08,-1.26 1.71,-2.88 0.63,-1.71 0.63,-3.6 z m 20.16,44.82 -10.98,0 -18.27,-26.28 -8.28,0 0,26.55 -9,0 0,-62.999997 16.92,0 q 3.78,0 7.2,1.44 3.42,1.44 5.94,3.87 2.61,2.429997 4.14,5.759997 1.53,3.24 1.53,6.84 0,5.13 -2.43,9.27 -2.43,4.14 -6.48,6.84 l 19.71,28.71 z"
         style="font-style:normal;font-variant:normal;font-weight:normal;font-stretch:normal;font-size:90px;font-family:Railway;-inkscape-font-specification:Railway;fill:#56a1c8;fill-opacity:0.94117647"
         id="path6085" />
      <path
         d="m 310.02219,145.76182 q 0,0 0,-8.46 -3.42,0 -6.48,0.27 -3.06,0.27 -5.31,0.99 -2.25,0.63 -3.6,1.89 -1.26,1.26 -1.26,3.24 0,2.88 2.43,3.69 2.52,0.81 6.03,0.81 1.98,0 4.14,-0.63 2.25,-0.72 4.05,-1.8 z m 9,9.54 -9,0 0,-2.25 q -2.34,1.53 -5.31,2.34 -2.88,0.81 -5.31,0.81 -3.06,0 -5.76,-0.9 -2.61,-0.99 -4.59,-2.7 -1.98,-1.71 -3.15,-3.87 -1.17,-2.25 -1.17,-4.86 0,-2.97 1.26,-5.67 1.35,-2.7 4.32,-4.68 3.06,-1.98 7.83,-3.15 4.86,-1.17 11.88,-1.17 0,-2.34 -0.36,-4.14 -0.36,-1.89 -1.35,-3.06 -0.99,-1.26 -2.7,-1.89 -1.71,-0.63 -4.32,-0.63 -3.87,0 -7.38,1.35 -3.51,1.26 -7.29,4.68 l -0.9,0 3.42,-11.34 q 2.52,-1.62 5.94,-2.61 3.42,-1.08 6.57,-1.08 2.34,0 5.31,0.63 3.06,0.54 5.67,2.43 2.7,1.89 4.5,5.58 1.89,3.6 1.89,9.63 l 0,26.55 z"
         style="font-style:normal;font-variant:normal;font-weight:normal;font-stretch:normal;font-size:90px;font-family:Railway;-inkscape-font-specification:Railway;fill:#56a1c8;fill-opacity:0.94117647"
         id="path6087" />
      <path
         d="m 360.785,133.97182 q 0,-2.61 -1.08,-4.95 -0.99,-2.34 -2.79,-4.05 -1.8,-1.8 -4.14,-2.79 -2.34,-1.08 -5.04,-1.08 -3.51,0 -6.48,1.26 -2.97,1.17 -5.04,3.15 l 0,16.74 q 2.07,2.34 5.04,3.69 2.97,1.26 6.48,1.26 2.7,0 5.04,-0.99 2.34,-1.08 4.14,-2.88 1.8,-1.8 2.79,-4.23 1.08,-2.43 1.08,-5.13 z m 9,0 q 0,4.59 -1.8,8.64 -1.71,4.05 -4.77,7.11 -2.97,2.97 -7.02,4.77 -3.96,1.71 -8.46,1.71 -3.15,0 -6.12,-0.9 -2.88,-0.81 -5.4,-2.34 l 0,22.59 -9,0 0,-63 9,0 0,2.43 q 2.61,-1.35 5.49,-2.07 2.88,-0.81 6.12,-0.81 4.5,0 8.46,1.8 4.05,1.71 7.02,4.68 2.97,2.97 4.68,6.93 1.8,3.96 1.8,8.46 z"
         style="font-style:normal;font-variant:normal;font-weight:normal;font-stretch:normal;font-size:90px;font-family:Railway;-inkscape-font-specification:Railway;fill:#56a1c8;fill-opacity:0.94117647"
         id="path6089" />
      <path
         d="m 386.04687,155.30182 -8.91,0 0,-42.66 8.91,0 0,42.66 z m 1.89,-53.82 -6.3,6.3 -6.29999,-6.3 6.29999,-6.389997 6.3,6.389997 z"
         style="font-style:normal;font-variant:normal;font-weight:normal;font-stretch:normal;font-size:90px;font-family:Railway;-inkscape-font-specification:Railway;fill:#56a1c8;fill-opacity:0.94117647"
         id="path6091" />
      <path
         d="m 435.56234,155.30182 -9,0 0,-2.07 q -2.43,1.44 -5.22,2.16 -2.79,0.81 -5.85,0.81 -4.5,0 -8.55,-1.71 -3.96,-1.8 -7.02,-4.77 -2.97,-3.06 -4.77,-7.11 -1.71,-4.05 -1.71,-8.64 0,-4.5 1.71,-8.46 1.8,-3.96 4.77,-6.93 2.97,-2.97 6.93,-4.68 4.05,-1.8 8.55,-1.8 3.06,0 5.85,0.81 2.88,0.81 5.31,2.25 l 0,-22.859997 9,0 0,62.999997 z m -9,-30.06 q -2.07,-1.89 -4.95,-2.97 -2.79,-1.17 -6.12,-1.17 -2.7,0 -5.04,1.08 -2.34,0.99 -4.14,2.79 -1.8,1.71 -2.88,4.05 -0.99,2.34 -0.99,4.95 0,2.7 0.99,5.13 1.08,2.43 2.88,4.23 1.8,1.8 4.14,2.88 2.34,0.99 5.04,0.99 3.24,0 6.12,-1.08 2.88,-1.08 4.95,-2.97 l 0,-17.91 z"
         style="font-style:normal;font-variant:normal;font-weight:normal;font-stretch:normal;font-size:90px;font-family:Railway;-inkscape-font-specification:Railway;fill:#56a1c8;fill-opacity:0.94117647"
         id="path6093" />
      <path
         d="m 505.11266,101.30182 -28.8,0 0,15.75 21.87,0 0,9 -21.87,0 0,29.07 -9,0 0,-62.819997 37.8,0 0,8.999997 z"
         style="font-style:normal;font-variant:normal;font-weight:normal;font-stretch:normal;font-size:90px;font-family:Railway;-inkscape-font-specification:Railway;fill:#56a1c8;fill-opacity:0.94117647"
         id="path6095" />
      <path
         d="m 536.44531,153.14182 q -2.07,1.44 -4.77,2.25 -2.7,0.9 -5.04,0.9 -3.24,0 -6.03,-1.08 -2.79,-1.08 -4.86,-2.97 -2.07,-1.98 -3.24,-4.59 -1.17,-2.61 -1.17,-5.67 l 0,-49.499997 9,0 0,46.799997 q 0,3.51 1.8,5.76 1.8,2.25 4.5,2.25 2.34,0 5.04,-0.81 2.7,-0.9 4.77,-2.43 l 0,9.09 z"
         style="font-style:normal;font-variant:normal;font-weight:normal;font-stretch:normal;font-size:90px;font-family:Railway;-inkscape-font-specification:Railway;fill:#56a1c8;fill-opacity:0.94117647"
         id="path6097" />
      <path
         d="m 574.44078,133.97182 q 0,-2.61 -1.08,-4.95 -0.99,-2.34 -2.79,-4.05 -1.8,-1.8 -4.14,-2.79 -2.34,-1.08 -5.04,-1.08 -2.7,0 -5.13,1.08 -2.34,0.99 -4.14,2.79 -1.71,1.71 -2.79,4.14 -0.99,2.34 -0.99,4.95 0,2.7 0.99,5.13 1.08,2.43 2.79,4.23 1.8,1.71 4.14,2.79 2.43,0.99 5.13,0.99 2.7,0 5.04,-0.99 2.34,-1.08 4.14,-2.88 1.8,-1.8 2.79,-4.23 1.08,-2.43 1.08,-5.13 z m 9,0 q 0,4.59 -1.8,8.64 -1.71,4.05 -4.77,7.11 -2.97,2.97 -7.02,4.77 -3.96,1.71 -8.46,1.71 -4.59,0 -8.64,-1.71 -3.96,-1.8 -6.93,-4.77 -2.97,-3.06 -4.77,-7.11 -1.71,-4.05 -1.71,-8.64 0,-4.5 1.71,-8.46 1.8,-3.96 4.77,-6.93 3.06,-2.97 7.02,-4.68 4.05,-1.8 8.64,-1.8 4.5,0 8.46,1.8 4.05,1.71 7.02,4.68 2.97,2.97 4.68,6.93 1.8,3.96 1.8,8.46 z"
         style="font-style:normal;font-variant:normal;font-weight:normal;font-stretch:normal;font-size:90px;font-family:Railway;-inkscape-font-specification:Railway;fill:#56a1c8;fill-opacity:0.94117647"
         id="path6099" />
      <path
         d="m 655.06109,112.64182 -15.57,42.84 -9,0 -9.36,-25.2 -9.45,25.2 -9,0 -15.57,-42.84 9.54,0 10.53,28.89 9.63,-25.29 8.55,0 9.63,25.29 10.53,-28.89 9.54,0 z"
         style="font-style:normal;font-variant:normal;font-weight:normal;font-stretch:normal;font-size:90px;font-family:Railway;-inkscape-font-specification:Railway;fill:#56a1c8;fill-opacity:0.94117647"
         id="path6101" />
    </g>
  </g>
</svg>
